# xmcd
#
# Track frame offsets:
#	150
#	17089
#	39071
#	59615
#	83971
#	98373
#	114843
#	132113
#	154021
#
# Disc length: 2339 seconds
#
# Revision: 1
# Processed by: cddbd v1.5.1PL0 Copyright (c) Steve Scherf et al.
# Submitted via: EasyCDDAExtractor 6.5.0.1
#
DISCID=5d092109
DTITLE=EL TORITO - TIPICO
DYEAR=2005
DGENRE=Vocal
TTITLE0=CABO E´ VELA
TTITLE1=LA MAL MAÑA
TTITLE2=LA MUERTE DE MARTIN
TTITLE3=LA VIEJA Y SU PIPA
TTITLE4=EL TIRO E´ BALILO
TTITLE5=LA CULEBRA
TTITLE6=LA HIGÜERA
TTITLE7=ME LA VUA´ ROBAR
TTITLE8=EL PAJARO LOCO
EXTD=
EXTT0=
EXTT1=
EXTT2=
EXTT3=
EXTT4=
EXTT5=
EXTT6=
EXTT7=
EXTT8=
PLAYORDER=
